<?xml version="1.0" encoding="UTF-8"?><svg id="Layer_2" xmlns="http://www.w3.org/2000/svg" viewBox="0 0 120.65 84.84"><defs><style>.cls-1{fill:#fff;}</style></defs><g id="Graphic_Elements"><g><path class="cls-1" d="M0,9.19c.4-1,.46-2.13,1.04-2.93,12.13,12.02,24.25,24.03,36.38,36.06C25.24,54.39,13.11,66.39,.95,78.44c-.53-.6-.51-1.8-.95-2.8V9.19Z"/><path class="cls-1" d="M6.25,1.03C7.88,.22,9.45,0,11.07,0c9.15,0,18.3,0,27.45,0,23.6,0,47.2,0,70.79,0,1.73,0,3.41,.18,5.21,1.08-1.82,1.78-3.55,3.44-5.23,5.13-15.22,15.26-30.44,30.53-45.66,45.79-2.13,2.14-4.46,2.15-6.58,.02C40.39,35.31,23.73,18.6,7.07,1.89c-.25-.25-.48-.5-.82-.86Z"/><path class="cls-1" d="M6.21,83.81c12.21-12.09,24.31-24.07,36.53-36.16,.16,.04,.39,.43,.68,.73,2.92,2.91,5.81,5.84,8.73,8.76,4.78,4.76,11.57,4.75,16.37-.02,3.2-3.18,6.4-6.36,9.44-9.38,12.12,12,24.23,24,36.41,36.06-1.19,.68-2.41,.88-3.65,1.01-.51,.05-1.02,.03-1.53,.03-32.58,0-65.17,0-97.75,0-1.74,0-3.43-.19-5.23-1.03Z"/><path class="cls-1" d="M119.69,6.37c.58,1.13,.95,2.55,.95,4.05,0,21.31,0,42.63,0,63.94,0,1.51-.38,2.94-.96,4.13-12.1-12-24.23-24.02-36.4-36.09,12.12-12,24.24-24,36.4-36.03Z"/></g></g></svg>