<?xml version="1.0" encoding="UTF-8"?><svg id="Layer_2" xmlns="http://www.w3.org/2000/svg" viewBox="0 0 92.2 92.42"><defs><style>.cls-1{fill:#fff;}</style></defs><g id="Graphic_Elements"><path class="cls-1" d="M19.02,0c1.83,.4,3.59,.96,5.05,2.19,.21,.17,.42,.34,.61,.53,4.15,4.15,8.32,8.27,12.44,12.45,3.06,3.1,3.59,7.36,1.44,10.91-.97,1.6-2.34,2.72-4.1,3.36-2.55,.92-4.51,2.47-5.61,5.01-.73,1.69-.83,3.41-.36,5.19,1.24,4.65,3.79,8.54,6.9,12.11,3.72,4.28,7.98,7.91,13.11,10.43,2.14,1.05,4.35,1.96,6.82,1.62,3.27-.46,5.76-2.05,7.05-5.17,.84-2.05,1.87-3.88,3.86-5.05,3.23-1.89,7.31-1.65,10.07,.88,2.53,2.31,4.91,4.78,7.33,7.22,2.2,2.22,4.55,4.3,6.57,6.69,2.54,3.01,2.65,7.6,.38,10.82-.47,.67-.98,1.29-1.56,1.86-2.46,2.44-4.95,4.84-7.33,7.35-2.54,2.68-5.67,3.85-9.26,4-3.84,.16-7.53-.69-11.13-1.91-7.1-2.4-13.5-6.13-19.56-10.46-10.05-7.18-18.85-15.69-26.44-25.43-5.59-7.17-10.37-14.82-13.32-23.49C.69,27.33-.17,23.47,.03,19.44c.18-3.53,1.33-6.6,3.96-9.09,2.21-2.09,4.35-4.24,6.45-6.44,1.84-1.94,3.84-3.54,6.59-3.9h1.99Z"/></g></svg>