<?xml version="1.0" encoding="UTF-8"?><svg id="Layer_2" xmlns="http://www.w3.org/2000/svg" viewBox="0 0 83.09 110.79"><defs><style>.cls-1{fill:#fff;}</style></defs><g id="Graphic_Elements"><path class="cls-1" d="M40.69,110.79c-1.04-.52-1.89-1.27-2.73-2.06-10.56-10.07-19.95-21.1-27.38-33.71-4.37-7.42-7.8-15.23-9.6-23.71C-3.25,31.41,6.44,11.99,24.88,3.56,41.7-4.14,62.46,.98,73.96,15.75c8.72,11.19,10.94,23.78,7.72,37.45-2.11,8.97-6.13,17.12-11.01,24.87-7.15,11.35-15.83,21.43-25.53,30.66-.83,.79-1.69,1.54-2.73,2.05h-1.73Zm23.94-68.52c.57-12.48-9.45-23.16-22.31-23.78-12.48-.6-23.19,9.4-23.83,22.25-.62,12.57,9.46,23.32,22.41,23.89,12.47,.55,23.13-9.5,23.72-22.37Z"/></g></svg>