<svg id="Calque_1" data-name="Calque 1" xmlns="http://www.w3.org/2000/svg" viewBox="0 0 150 150"><defs><style>.cls-1{fill:#6b1f7c;}</style></defs><path class="cls-1" d="M74.16,104.56c-34.34,0-62.28-17.91-62.28-39.93S39.82,24.69,74.16,24.69s62.29,17.91,62.29,39.94S108.51,104.56,74.16,104.56Zm0-73.87c-31,0-56.28,15.22-56.28,33.94S43.13,98.56,74.16,98.56s56.29-15.22,56.29-33.93S105.2,30.69,74.16,30.69Z"/><path class="cls-1" d="M129.37,87.09c-5.12,15.56-27.92,27.32-55.21,27.32S24.08,102.65,19,87.09a31.19,31.19,0,0,1-6.39-12.54,26.13,26.13,0,0,0-.69,5.93c0,22,27.94,39.93,62.28,39.93s62.29-17.91,62.29-39.93a26.13,26.13,0,0,0-.69-5.93A31.19,31.19,0,0,1,129.37,87.09Z"/><path class="cls-1" d="M129.37,102.94c-5.12,15.56-27.92,27.33-55.21,27.33S24.08,118.5,19,102.94A31.19,31.19,0,0,1,12.57,90.4a26.19,26.19,0,0,0-.69,5.93c0,22,27.94,39.94,62.28,39.94s62.29-17.92,62.29-39.94a26.19,26.19,0,0,0-.69-5.93A31.19,31.19,0,0,1,129.37,102.94Z"/></svg>