<svg id="Calque_1" data-name="Calque 1" xmlns="http://www.w3.org/2000/svg" viewBox="0 0 150 150"><defs><style>.cls-1{fill:#6b1f7c;}</style></defs><path class="cls-1" d="M75.69,103.63,8.81,58.49,75.69,13.35l66.88,45.14ZM19.54,58.49l56.15,37.9,56.16-37.9L75.69,20.59Z"/><polygon class="cls-1" points="131.85 75.73 131.85 75.73 75.69 113.63 19.54 75.73 19.54 75.73 14.17 72.11 8.81 75.73 75.69 120.87 142.57 75.73 137.21 72.11 131.85 75.73"/><polygon class="cls-1" points="131.85 92.97 131.85 92.97 75.69 130.87 19.54 92.97 19.54 92.97 14.17 89.35 8.81 92.97 75.69 138.1 142.57 92.97 137.21 89.35 131.85 92.97"/></svg>